<?xml version="1.0" encoding="UTF-8" standalone="no"?>
<svg
   id="Layer_1"
   data-name="Layer 1"
   viewBox="0 0 128 128"
   preserveAspectRatio="xMinYMid"
   version="1.1"
   sodipodi:docname="alza.svg"
   width="128"
   height="128"
   inkscape:version="1.4.2 (f4327f4, 2025-05-13)"
   xmlns:inkscape="http://www.inkscape.org/namespaces/inkscape"
   xmlns:sodipodi="http://sodipodi.sourceforge.net/DTD/sodipodi-0.dtd"
   xmlns="http://www.w3.org/2000/svg"
   xmlns:svg="http://www.w3.org/2000/svg"
   xmlns:rdf="http://www.w3.org/1999/02/22-rdf-syntax-ns#"
   xmlns:cc="http://creativecommons.org/ns#"
   xmlns:dc="http://purl.org/dc/elements/1.1/">
  <sodipodi:namedview
     id="namedview4"
     pagecolor="#ffffff"
     bordercolor="#000000"
     borderopacity="0.25"
     inkscape:showpageshadow="2"
     inkscape:pageopacity="0.0"
     inkscape:pagecheckerboard="0"
     inkscape:deskcolor="#d1d1d1"
     inkscape:zoom="1.498129"
     inkscape:cx="-22.361225"
     inkscape:cy="55.068688"
     inkscape:window-width="1920"
     inkscape:window-height="1009"
     inkscape:window-x="1912"
     inkscape:window-y="-8"
     inkscape:window-maximized="1"
     inkscape:current-layer="Layer_1" />
  <defs
     id="defs1">
    <style
       id="style1">.cls-1{fill:#fff;}.cls-1,.cls-2,.cls-3{fill-rule:evenodd;}.cls-2,.cls-5{fill:#231f20;}.cls-3{fill:#043266;}.cls-4{fill:#093266;}</style>
  </defs>
  <title
     id="title1">alza_cz</title>
  <g
     id="g4"
     transform="translate(3.72,0.085)">
    <polygon
       class="cls-1"
       points="19.04,54.46 32.25,25.45 62.9,19.09 99.68,23.57 107.23,44.32 96.97,102.91 25.18,102.08 15.27,87.7 "
       id="polygon1" />
    <path
       class="cls-2"
       d="m 211.44,271.73 40.93,-9.28 A 33.62,33.62 0 0 0 238.23,279 l 26.82,2.22 c 1.23,-5.34 7,-8.3 12.15,-8.3 6.84,0 8.92,4.71 7.26,10.37 -19.3,0 -45.53,3.86 -53,24.17 -2.55,7 -1.93,15.57 3.77,20.92 3.86,3.62 9.65,5.28 16.73,5.28 9.58,0 22.19,-3.51 27.56,-12.15 l -0.89,8.15 0.44,2.82 h 28 c -1.15,-4.59 -0.57,-10.21 0.15,-14.82 1.14,-6.59 2.78,-13.55 4.17,-20.55 l 10,44 -89.65,20.32 -20.32,-89.65 v 0 z m 72.62,-16.46 17,-3.86 1.5,6.64 c -5.51,-2.18 -12.29,-2.71 -18.51,-2.78 z"
       transform="translate(-211.44,-233.61)"
       id="path1" />
    <path
       class="cls-3"
       d="M 222,253.94 311.65,233.62 332,323.27 306.58,329 a 49.53,49.53 0 0 1 0.7,-11.38 c 2.36,-13.58 6.82,-28.74 6.82,-42.52 0,-18.08 -17.75,-19.86 -31.71,-19.86 -17.88,0 -36.89,5.65 -44.15,23.71 l 26.82,2.22 c 1.23,-5.34 7,-8.3 12.15,-8.3 6.84,0 8.92,4.71 7.26,10.37 -18,0 -42.06,3.36 -51.22,20.33 z m 69.43,78.52 h -12.3 l -0.44,-2.82 0.89,-8.15 c -5.37,8.64 -18,12.15 -27.56,12.15 a 28.94,28.94 0 0 1 -12.51,-2.43 l 2.81,12.37 49.1,-11.13 v 0 z m -9,-35.26 c -6.78,0 -16.1,2.25 -19.78,8.63 a 7.81,7.81 0 0 0 -1,6.19 6.68,6.68 0 0 0 1,2.45 c 2.3,3.19 9.53,1.58 12.43,-0.2 5.39,-3.27 6.27,-11.27 7.31,-17.08 z"
       transform="translate(-211.44,-233.61)"
       id="path2" />
  </g>
  <metadata
     id="metadata4">
    <rdf:RDF>
      <cc:Work
         rdf:about="">
        <dc:title>alza_cz</dc:title>
      </cc:Work>
    </rdf:RDF>
  </metadata>
</svg>
