<?xml version="1.0" encoding="UTF-8" standalone="no"?>
<svg
   viewBox="0 0 256 256"
   height="256"
   width="256"
   xml:space="preserve"
   id="svg2"
   version="1.1"
   sodipodi:docname="ceska-posta.svg"
   inkscape:version="1.4.2 (f4327f4, 2025-05-13)"
   xmlns:inkscape="http://www.inkscape.org/namespaces/inkscape"
   xmlns:sodipodi="http://sodipodi.sourceforge.net/DTD/sodipodi-0.dtd"
   xmlns="http://www.w3.org/2000/svg"
   xmlns:svg="http://www.w3.org/2000/svg"
   xmlns:rdf="http://www.w3.org/1999/02/22-rdf-syntax-ns#"
   xmlns:cc="http://creativecommons.org/ns#"
   xmlns:dc="http://purl.org/dc/elements/1.1/"><sodipodi:namedview
     id="namedview1"
     pagecolor="#505050"
     bordercolor="#eeeeee"
     borderopacity="1"
     inkscape:showpageshadow="0"
     inkscape:pageopacity="0"
     inkscape:pagecheckerboard="0"
     inkscape:deskcolor="#505050"
     inkscape:zoom="1.6620442"
     inkscape:cx="62.874382"
     inkscape:cy="158.53971"
     inkscape:window-width="1920"
     inkscape:window-height="1009"
     inkscape:window-x="1912"
     inkscape:window-y="-8"
     inkscape:window-maximized="1"
     inkscape:current-layer="svg2" /><metadata
     id="metadata8"><rdf:RDF><cc:Work
         rdf:about=""><dc:format>image/svg+xml</dc:format><dc:type
           rdf:resource="http://purl.org/dc/dcmitype/StillImage" /></cc:Work></rdf:RDF></metadata><defs
     id="defs6" /><g
     transform="matrix(1.0756664,0,0,-1.0764558,0,226)"
     id="g10"><g
       transform="scale(0.1)"
       id="g12"><path
         id="path14"
         style="fill:#fcc907;fill-opacity:1;fill-rule:evenodd;stroke:none"
         d="M 45.6289,1820.79 C 20.4922,1820.78 0,1800.4 0,1775.37 22.9727,1123.52 539.102,596.789 1188.32,553.762 c 28.41,-1.871 57.03,-0.653 85.92,-0.653 92.28,0 188.18,16.161 274.78,35.121 280.4,61.348 488.08,309.219 488.08,608.92 0,20.62 -1.03,41.02 -2.99,61.14 -3.67,37.34 -10.68,73.71 -20.61,108.84 -74.31,261.8 -315.96,453.66 -602.63,453.66 -286.69,0 -528.315,-191.86 -602.628,-453.66 51.332,-180.58 182.301,-327.81 352.718,-401.759 -56.86,60.749 -91.68,142.209 -91.68,231.779 0,187.86 152.94,340.17 341.59,340.17 188.64,0 341.58,-152.31 341.58,-340.17 0,-89.57 -34.84,-171.03 -91.67,-231.779 -62.37,-66.68 -151.23,-108.391 -249.91,-108.391 -277.46,0 -516.265,164.73 -623.241,401.31 -15.758,34.86 -28.668,71.26 -38.41,108.96 -14.039,54.35 -21.528,111.33 -21.528,170.07 0,81.74 14.52,160.1 41.067,232.69 1.211,3.33 2.5,6.64 3.762,9.95 0.457,2.2 0.726,4.48 0.726,6.83 0,18.78 -15.301,34 -34.164,34 H 45.7266" /><path
         id="path16"
         style="fill:#fcc907;fill-opacity:1;fill-rule:evenodd;stroke:none"
         d="m 2345.97,1786.49 c 21.31,-79.49 32.72,-162.99 32.72,-249.17 0,-291.47 -129.95,-552.711 -335.26,-729.441 -51.29,-38.688 -95.08,-76.969 -180.74,-122.32 155.31,146.011 231.36,317.241 231.36,511.591 0,58.74 -7.49,115.72 -21.54,170.1 14.05,54.35 21.54,111.33 21.54,170.07 0,83.78 -15.24,164 -43.08,238.12 -1.26,3.56 -1.81,7.36 -1.81,11.35 0,18.78 15.29,33.99 34.15,34 h 218.55 c 20.93,-0.01 38.8,-15.16 44.11,-34.3" /><path
         id="path18"
         style="fill:#1f357a;fill-opacity:1;fill-rule:nonzero;stroke:none"
         d="M 212.516,435.16 172.379,391.5 H 119.57 l -38.4098,43.66 v 16.559 H 123.48 l 24.454,-16.559 24,16.559 h 40.582 V 435.16" /><path
         id="path20"
         style="fill:#1f357a;fill-opacity:1;fill-rule:nonzero;stroke:none"
         d="m 0.875,221.672 c 0,99.918 62.832,158.418 157.098,158.418 42.765,0 68.929,-8.699 91.632,-21.801 v -58.051 h -32.292 c -11.348,10.461 -29.668,20.063 -57.172,20.063 -46.25,0 -73.7387,-30.981 -73.7387,-95.563 0,-69.808 23.9927,-99.5 69.8167,-99.5 32.73,0 51.492,12.211 66.344,26.614 h 29.671 V 96.4492 C 229.098,79.4297 196.371,66.7617 150.984,66.7617 59.3242,66.7617 0.875,122.609 0.875,221.672" /><path
         id="path22"
         style="fill:#1f357a;fill-opacity:1;fill-rule:nonzero;stroke:none"
         d="m 344.668,168.441 c 3.934,-38.812 22.246,-48.882 54.102,-48.882 25.738,0 44.964,7.429 58.492,17.043 h 24.422 V 89.9297 C 461.617,78.5703 434.559,67.2188 386.559,67.2188 c -79.871,0 -121.325,44.4922 -121.325,116.9412 0,73.738 47.996,120.02 117.399,120.02 71.562,0 108.222,-38.012 108.222,-115.66 0,-9.149 -0.867,-17.45 -0.867,-20.079 z m 0.426,41 h 71.57 c -1.305,35.379 -13.105,46.719 -34.031,46.719 -17.875,0 -33.16,-9.16 -37.539,-46.719" /><path
         id="path24"
         style="fill:#1f357a;fill-opacity:1;fill-rule:nonzero;stroke:none"
         d="m 510.758,85.9805 v 51.4685 h 26.625 c 9.16,-8.269 28.371,-17.008 53.238,-17.008 20.945,0 34.035,4.797 34.035,16.579 0,12.23 -7.855,16.16 -39.715,20.5 -48.851,6.121 -76.378,23.152 -76.378,71.148 0,50.172 39.289,75.043 96.898,75.043 36.629,0 58.035,-6.082 77.68,-15.25 v -50.652 h -24.86 c -10.488,7.011 -27.511,13.972 -50.64,13.972 -21.817,0 -30.102,-5.66 -30.102,-16.562 0,-9.629 10.02,-14.41 39.262,-17.899 53.683,-6.55 79.426,-22.672 79.426,-71.601 0,-48.8401 -32.301,-78.0901 -102.536,-78.0901 -40.171,0 -64.187,8.7422 -82.933,18.3516" /><path
         id="path26"
         style="fill:#1f357a;fill-opacity:1;fill-rule:nonzero;stroke:none"
         d="m 795.867,215.129 71.571,85.531 h 65.453 V 281.898 L 869.617,209.91 941.625,89.4805 V 70.6914 h -73.758 l -53.23,89.4686 -18.77,-20.512 V 70.6914 H 717.313 V 377.961 h 49.746 c 24.019,0 28.808,-6.141 28.808,-41.039 V 215.129" /><path
         id="path28"
         style="fill:#1f357a;fill-opacity:1;fill-rule:nonzero;stroke:none"
         d="m 1086.02,92.5195 c -16.14,-17.8906 -37.53,-24.8906 -65.88,-24.8906 -40.593,0 -72.882,23.1406 -72.882,68.5191 0,48.442 37.074,71.571 90.322,71.571 17.46,0 30.99,-1.731 44.09,-4.379 v 15.719 c 0,20.082 -10.48,29.23 -38.85,29.23 -22.68,0 -41.44,-6.527 -54.554,-15.258 h -23.563 v 52.797 c 21.387,9.172 52.367,18.32 93.407,18.32 68.5,0 102.09,-22.687 102.09,-79.398 V 70.6914 h -42.76 c -18.33,0 -27.05,6.5274 -31.42,21.8281 m -4.35,74.1795 c -7.87,1.332 -17.03,2.211 -25.77,2.211 -20.95,0 -34.02,-8.332 -34.02,-27.5 0,-19.66 12.21,-27.941 29.24,-27.941 11.78,0 22.25,5.64 30.55,12.66 z M 1034.95,315.5 v 14.41 l 14.42,47.578 h 75.48 V 358.691 L 1080.79,315.5 h -45.84" /><path
         id="path30"
         style="fill:#1f357a;fill-opacity:1;fill-rule:nonzero;stroke:none"
         d="M 1374.29,89.0195 V 0 h -78.55 v 300.66 h 54.56 c 11.78,0 18.76,-4.34 21.84,-24.859 16.98,16.129 39.24,28.347 70.65,28.347 43.66,0 86.86,-28.347 86.86,-112.16 0,-87.707 -48.01,-119.0974 -99.03,-119.0974 -24.88,0 -42.79,5.6797 -56.33,16.1289 m 0,149.2505 V 132.66 c 8.75,-6.101 18.77,-9.191 31.86,-9.191 24,0 44.07,10.941 44.07,61.551 0,49.339 -19.19,60.64 -42.76,60.64 -9.59,0 -22.7,-3.019 -33.17,-7.39" /><path
         id="path32"
         style="fill:#1f357a;fill-opacity:1;fill-rule:nonzero;stroke:none"
         d="m 1547.03,184.59 c 0,73.762 53.22,119.59 122.62,119.59 68.94,0 122.19,-45.828 122.19,-119.59 0,-73.309 -53.25,-117.3712 -122.19,-117.3712 -69.4,0 -122.62,44.0622 -122.62,117.3712 m 165.4,-0.879 c 0,45.84 -17.44,66.777 -42.78,66.777 -25.76,0 -43.21,-20.937 -43.21,-66.777 0,-45.371 17.45,-65.031 43.21,-65.031 25.34,0 42.78,19.66 42.78,65.031" /><path
         id="path34"
         style="fill:#1f357a;fill-opacity:1;fill-rule:nonzero;stroke:none"
         d="m 1808.35,85.9805 v 51.4685 h 26.63 c 9.16,-8.269 28.36,-17.008 53.25,-17.008 20.91,0 34.02,4.797 34.02,16.579 0,12.23 -7.84,16.16 -39.73,20.5 -48.86,6.121 -76.36,23.152 -76.36,71.148 0,50.172 39.29,75.043 96.88,75.043 36.67,0 58.05,-6.082 77.69,-15.25 v -50.652 h -24.91 c -10.42,7.011 -27.47,13.972 -50.61,13.972 -21.82,0 -30.08,-5.66 -30.08,-16.562 0,-9.629 10,-14.41 39.28,-17.899 53.69,-6.55 79.41,-22.672 79.41,-71.601 0,-48.8401 -32.3,-78.0901 -102.58,-78.0901 -40.11,0 -64.13,8.7422 -82.89,18.3516 M 1967.21,360.898 1927.05,315.5 h -52.81 l -38.38,45.398 v 16.59 h 42.31 l 24.42,-18.347 24.03,18.347 h 40.59 v -16.59" /><path
         id="path36"
         style="fill:#1f357a;fill-opacity:1;fill-rule:nonzero;stroke:none"
         d="m 2004.2,300.66 h 24.88 v 58.481 h 78.56 V 300.66 h 42.76 v -50.621 h -42.76 V 145.32 c 0,-20.531 7.85,-27.07 28.39,-27.07 h 15.23 V 72.8906 c -10.46,-3.0625 -25.29,-6.1289 -44.93,-6.1289 -47.13,0 -77.25,16.5977 -77.25,66.7693 v 116.508 h -24.88 v 50.621" /><path
         id="path38"
         style="fill:#1f357a;fill-opacity:1;fill-rule:nonzero;stroke:none"
         d="m 2305.75,92.5195 c -16.2,-17.8906 -37.55,-24.8906 -65.93,-24.8906 -40.55,0 -72.86,23.1406 -72.86,68.5191 0,48.442 37.08,71.571 90.33,71.571 17.44,0 30.98,-1.731 44.05,-4.379 v 15.719 c 0,20.082 -10.44,29.23 -38.81,29.23 -22.71,0 -41.46,-6.527 -54.57,-15.258 h -23.56 v 52.797 c 21.41,9.172 52.38,18.32 93.4,18.32 68.51,0 102.12,-22.687 102.12,-79.398 V 70.6914 h -42.76 c -18.33,0 -27.07,6.5274 -31.41,21.8281 m -4.41,33.6095 v 40.57 c -7.81,1.332 -16.99,2.211 -25.71,2.211 -20.96,0 -34.04,-8.332 -34.04,-27.5 0,-19.66 12.21,-27.941 29.25,-27.941 11.77,0 22.22,5.64 30.5,12.66" /></g></g></svg>
