<?xml version="1.0" encoding="UTF-8" standalone="no"?>
<!-- Created with Inkscape (http://www.inkscape.org/) -->

<svg
   width="256"
   height="256"
   viewBox="0 0 67.733334 67.733334"
   version="1.1"
   id="svg1"
   xml:space="preserve"
   sodipodi:docname="octosus.svg"
   inkscape:version="1.4.2 (f4327f4, 2025-05-13)"
   xmlns:inkscape="http://www.inkscape.org/namespaces/inkscape"
   xmlns:sodipodi="http://sodipodi.sourceforge.net/DTD/sodipodi-0.dtd"
   xmlns="http://www.w3.org/2000/svg"
   xmlns:svg="http://www.w3.org/2000/svg"><sodipodi:namedview
     id="namedview1"
     pagecolor="#505050"
     bordercolor="#eeeeee"
     borderopacity="1"
     inkscape:showpageshadow="0"
     inkscape:pageopacity="0"
     inkscape:pagecheckerboard="0"
     inkscape:deskcolor="#505050"
     inkscape:zoom="3.1523438"
     inkscape:cx="-0.15861214"
     inkscape:cy="128"
     inkscape:window-width="1920"
     inkscape:window-height="1009"
     inkscape:window-x="1912"
     inkscape:window-y="-8"
     inkscape:window-maximized="1"
     inkscape:current-layer="g2" /><defs
     id="defs1" /><g
     id="layer1"><g
       id="g1"
       transform="translate(-135.29635,58.940741)"><path
         style="fill:#4d008b;fill-opacity:1;stroke-width:0.338852"
         d="m 170.04738,-55.989795 c 4.45769,0 8.31098,2.426734 10.12322,4.832638 1.81223,2.405903 2.56213,5.103431 2.56213,7.644731 0,2.541301 -1.35398,5.749173 -2.35383,7.082313 -0.99986,1.333141 -1.06235,2.874586 -0.45827,3.645307 0.60408,0.770723 2.11428,2.291338 4.31188,1.572692 2.1976,-0.718648 2.45798,-2.541302 2.31217,-4.436861 -0.14581,-1.89556 0.11731,-3.792975 1.59024,-5.221714 1.47292,-1.428738 3.06368,-1.576031 4.44823,-1.38455 1.38456,0.19148 2.86129,1.685098 3.16333,2.815143 0.30204,1.130046 0.28121,2.015335 0.0417,2.593377 -0.23955,0.578041 -1.16129,1.426878 -1.48937,1.166498 -0.32808,-0.260379 0.62491,-0.635325 0.58846,-1.905976 -0.0365,-1.27065 -1.12484,-2.332996 -2.37987,-2.301751 -1.25503,0.03125 -2.70804,0.851054 -2.72276,3.524416 -0.0147,2.673361 0.13992,4.404051 -0.8764,5.751779 -1.01632,1.347729 -2.38614,2.364046 -3.74859,2.695457 -1.36246,0.331408 -2.55553,0.147293 -3.69705,-0.176752 -1.14152,-0.324045 -1.52448,-0.773287 -1.52448,-0.773287 0,0 0.51552,1.001589 1.80433,1.752785 1.28881,0.751191 2.40088,1.443467 5.28781,0.662815 2.88694,-0.780651 3.10788,-3.446648 6.15684,-4.24203 3.04895,-0.795378 4.86065,0.618629 5.56766,1.531844 0.707,0.913214 1.2776,1.9274 1.22552,3.198049 -0.0521,1.27065 -0.58324,2.541299 -1.40604,3.134966 -0.8228,0.593662 -1.02069,0.676986 -1.4373,0.791552 -0.4166,0.114572 -1.18733,0.187473 -1.21857,-0.124984 -0.0312,-0.312455 0.58325,-0.218718 1.06235,-0.64574 0.47909,-0.427022 1.24982,-0.812383 1.31231,-2.572545 0.0625,-1.760162 -1.79141,-2.707944 -2.56213,-2.603791 -0.77073,0.104147 -1.58311,-0.01038 -3.31203,1.749748 -1.72891,1.760162 -3.79112,3.509912 -7.66556,3.655723 -3.87444,0.145812 -6.85318,-3.062062 -7.59266,-4.093163 -0.73947,-1.031101 -1.19774,-2.062202 -1.19774,-2.062202 0,0 0.38536,2.270509 1.29148,3.614062 0.90612,1.343558 3.03081,3.614063 6.31159,4.113992 3.28078,0.49993 4.50977,-0.427022 7.47809,1.697671 2.96832,2.124694 2.21843,5.884572 1.45812,6.988577 -0.7603,1.104008 -2.08303,2.062202 -3.66613,2.103863 -1.58311,0.04166 -2.8121,-0.755098 -2.64025,-1.1665 0.17185,-0.411396 0.64054,0.21872 2.18719,0.119772 1.54665,-0.09895 2.52568,-1.775784 2.40069,-2.890204 -0.12498,-1.114425 -0.39577,-3.301611 -5.13467,-3.249536 -4.7389,0.05207 -8.0301,-1.65601 -10.47766,-4.311877 -2.44757,-2.655866 -2.68711,-5.311735 -2.68711,-5.311735 0,0 -0.36453,2.937077 1.72891,6.061629 2.09345,3.124549 5.62922,3.821755 5.85016,7.916489 0.22094,4.094738 -4.00636,4.963762 -5.19943,4.639721 -1.19307,-0.324044 -2.84312,-1.714024 -2.32757,-2.156667 0.51555,-0.442647 0.58325,0.838418 2.01013,0.812382 1.42688,-0.02603 2.49964,-1.255029 2.44756,-2.681906 -0.0521,-1.426879 -0.84868,-2.115914 -2.9255,-4.001261 -2.07683,-1.885346 -2.65832,-2.518705 -3.34355,-3.991632 -0.67147,-1.443372 -0.67754,-1.988453 -0.67754,-1.988453 z"
         id="path1-9" /><path
         id="path2-6"
         style="fill:#4d008b;fill-opacity:1;stroke-width:0.338852"
         d="m 146.81496,-42.320577 c -0.36685,-0.0092 -0.72563,0.01724 -1.07177,0.06511 -1.38455,0.19148 -2.86159,1.685287 -3.16363,2.815332 -0.30204,1.130046 -0.28089,2.015598 -0.0413,2.59364 0.23955,0.578041 1.16124,1.426717 1.48931,1.166337 0.32808,-0.260379 -0.62505,-0.635176 -0.58859,-1.905827 0.0365,-1.27065 1.12467,-2.33343 2.3797,-2.302185 1.25503,0.03125 2.7081,0.851488 2.72283,3.52485 0.0147,2.673361 -0.13989,4.403859 0.87643,5.751587 1.01632,1.347729 2.38615,2.364032 3.74861,2.695443 1.36246,0.331408 2.55541,0.147311 3.69693,-0.176734 1.14152,-0.324045 1.52446,-0.773079 1.52446,-0.773079 0,0 -0.51522,1.001152 -1.80403,1.752348 -1.28881,0.751191 -2.40111,1.44366 -5.28805,0.663008 -2.88694,-0.780651 -3.10777,-3.446736 -6.15673,-4.242118 -3.04895,-0.795378 -4.86061,0.618474 -5.56762,1.531689 -0.707,0.913214 -1.27784,1.927606 -1.22576,3.198255 0.0521,1.27065 0.58332,2.541542 1.40611,3.135209 0.8228,0.593662 1.02104,0.6766 1.43764,0.791166 0.41661,0.114572 1.18729,0.187917 1.21853,-0.12454 0.0312,-0.312455 -0.58337,-0.218933 -1.06246,-0.645955 -0.4791,-0.427022 -1.24958,-0.812291 -1.31207,-2.572453 -0.0625,-1.760162 1.7914,-2.708129 2.56212,-2.603976 0.77072,0.104147 1.58302,-0.01036 3.31194,1.749764 1.72892,1.760162 3.79072,3.50978 7.66517,3.655591 3.87444,0.145812 6.85333,-3.061672 7.59281,-4.092773 0.73948,-1.031101 1.19786,-2.062407 1.19786,-2.062407 0,0 -0.38527,2.270697 -1.29139,3.61425 -0.90612,1.343558 -3.03098,3.614032 -6.31176,4.113961 -3.28078,0.49993 -4.50977,-0.427122 -7.4781,1.697571 -2.96832,2.124694 -2.21861,5.884715 -1.4583,6.98872 0.7603,1.104008 2.08333,2.062087 3.66644,2.103748 1.5831,0.04166 2.812,-0.755452 2.64015,-1.166854 -0.17185,-0.411396 -0.6403,0.218837 -2.18695,0.119889 -1.54665,-0.09895 -2.52587,-1.775843 -2.40089,-2.890263 0.12499,-1.114425 0.39567,-3.301489 5.13457,-3.249414 4.7389,0.05207 8.03035,-1.656014 10.47792,-4.311881 2.44756,-2.655866 2.68717,-5.311821 2.68717,-5.311821 0,0 0.36435,2.937094 -1.72909,6.061646 -2.09345,3.124549 -5.62935,3.822095 -5.85029,7.916829 -0.22094,4.094738 4.00661,4.963552 5.19968,4.639511 1.19307,-0.324044 2.84306,-1.713815 2.32751,-2.156458 -0.51555,-0.442647 -0.58334,0.838389 -2.01022,0.812353 -1.42687,-0.02603 -2.49947,-1.255129 -2.44739,-2.682006 0.0521,-1.426879 0.84858,-2.11596 2.9254,-4.001307 2.07683,-1.885346 2.65824,-2.51856 3.34347,-3.991487 0.67147,-1.443372 0.67747,-1.988509 0.67747,-1.988509 v -7.91683 c -3.56727,-0.07062 -6.96961,-1.515488 -9.49761,-4.033345 0.0576,0.635511 -0.0786,1.201175 -0.37568,1.580265 -0.60408,0.770723 -2.11429,2.29116 -4.31189,1.572514 -2.1976,-0.718648 -2.45781,-2.54138 -2.312,-4.436939 0.14581,-1.89556 -0.11716,-3.792648 -1.59008,-5.221387 -1.1047,-1.071553 -2.27599,-1.422423 -3.37654,-1.45004 z" /><path
         d="m 168.65574,-43.971939 c 0,1.626309 -0.2555,2.820692 -0.76651,3.583151 -0.50696,0.758403 -1.29578,1.137605 -2.36647,1.137605 -1.08691,0 -1.88181,-0.385285 -2.38471,-1.155855 -0.49884,-0.77057 -0.74826,-1.954815 -0.74826,-3.552734 0,-1.610085 0.25348,-2.798385 0.76043,-3.5649 0.50695,-0.77057 1.2978,-1.155855 2.37254,-1.155855 1.08691,0 1.87979,0.391368 2.37863,1.174105 0.5029,0.778681 0.75435,1.956842 0.75435,3.534483 z m -1.59995,2.761886 c 0.14195,-0.328507 0.23726,-0.713792 0.28593,-1.155855 0.0527,-0.44612 0.0791,-0.981464 0.0791,-1.606031 0,-0.616456 -0.0264,-1.151799 -0.0791,-1.60603 -0.0487,-0.454231 -0.146,-0.839516 -0.29201,-1.155855 -0.14195,-0.312283 -0.33662,-0.54751 -0.58401,-0.70568 -0.24334,-0.158169 -0.55765,-0.237254 -0.94294,-0.237254 -0.38123,0 -0.69756,0.07908 -0.94901,0.237254 -0.24739,0.15817 -0.44409,0.397452 -0.5901,0.717847 -0.13789,0.300117 -0.23319,0.691485 -0.28592,1.174106 -0.0487,0.48262 -0.073,1.01188 -0.073,1.587779 0,0.632679 0.0223,1.161939 0.0669,1.58778 0.0446,0.425841 0.13991,0.807071 0.28592,1.143688 0.13384,0.316339 0.32243,0.55765 0.56576,0.723931 0.24739,0.166281 0.57387,0.249421 0.97944,0.249421 0.38123,0 0.69757,-0.07908 0.94902,-0.237255 0.25145,-0.158169 0.44612,-0.397451 0.58401,-0.717846 z"
         id="text2-2"
         style="font-size:12.4589px;fill:#4f4f4f;fill-opacity:1;stroke:#4f4f4f;stroke-width:0.264583;stroke-dasharray:none;stroke-opacity:1"
         aria-label="0" /><path
         d="m 168.24302,-35.12627 c 0,1.183082 -0.18587,2.051953 -0.55761,2.606614 -0.36879,0.551711 -0.94263,0.827567 -1.72151,0.827567 -0.79069,0 -1.36896,-0.280281 -1.7348,-0.840842 -0.36289,-0.560563 -0.54433,-1.422058 -0.54433,-2.584487 0,-1.17128 0.18439,-2.035726 0.55318,-2.593338 0.36879,-0.560562 0.94411,-0.840843 1.72595,-0.840843 0.79069,0 1.36747,0.284707 1.73036,0.85412 0.36584,0.566462 0.54876,1.423532 0.54876,2.571209 z m -1.1639,2.009174 c 0.10326,-0.238977 0.17259,-0.519259 0.208,-0.840844 0.0383,-0.324537 0.0575,-0.71398 0.0575,-1.16833 0,-0.448449 -0.0192,-0.837892 -0.0575,-1.168329 -0.0354,-0.330437 -0.10621,-0.610718 -0.21243,-0.840843 -0.10326,-0.227175 -0.24487,-0.398294 -0.42484,-0.513357 -0.17702,-0.115063 -0.40567,-0.172594 -0.68595,-0.172594 -0.27733,0 -0.50746,0.05753 -0.69038,0.172594 -0.17997,0.115063 -0.32306,0.289132 -0.42927,0.522207 -0.10031,0.218325 -0.16965,0.503032 -0.208,0.854121 -0.0354,0.351089 -0.0531,0.736106 -0.0531,1.155053 0,0.460251 0.0162,0.845268 0.0487,1.155052 0.0325,0.309785 0.1018,0.587116 0.208,0.831993 0.0974,0.230125 0.23455,0.40567 0.41157,0.526634 0.17997,0.120963 0.41747,0.181445 0.7125,0.181445 0.27733,0 0.50746,-0.05753 0.69038,-0.172595 0.18292,-0.115062 0.32453,-0.289131 0.42484,-0.522207 z"
         id="text2-46-9"
         style="font-size:12.4589px;fill:#4f4f4f;fill-opacity:1;stroke:#4f4f4f;stroke-width:0.264583;stroke-dasharray:none;stroke-opacity:1"
         aria-label="0" /><path
         d="m 164.58543,-51.876285 c 0,0.90089 -0.14154,1.562516 -0.42461,1.984877 -0.28083,0.420115 -0.71779,0.630173 -1.31089,0.630173 -0.60209,0 -1.04243,-0.213427 -1.32101,-0.640282 -0.27633,-0.426855 -0.41449,-1.082865 -0.41449,-1.968028 0,-0.891902 0.14041,-1.550158 0.42123,-1.974767 0.28083,-0.426855 0.71892,-0.640282 1.31427,-0.640282 0.60209,0 1.0413,0.216797 1.31763,0.650392 0.27858,0.431349 0.41787,1.083988 0.41787,1.957917 z m -0.88628,1.529939 c 0.0786,-0.181975 0.13142,-0.395402 0.15838,-0.640283 0.0292,-0.247126 0.0438,-0.543678 0.0438,-0.889656 0,-0.341483 -0.0146,-0.638035 -0.0438,-0.889655 -0.0269,-0.25162 -0.0808,-0.465048 -0.16175,-0.640283 -0.0786,-0.172989 -0.18647,-0.303292 -0.32352,-0.39091 -0.13479,-0.08762 -0.3089,-0.131426 -0.52233,-0.131426 -0.21118,0 -0.38642,0.04381 -0.52571,0.131426 -0.13704,0.08762 -0.246,0.220168 -0.32688,0.39765 -0.0764,0.166249 -0.12917,0.383046 -0.15838,0.650392 -0.0269,0.267347 -0.0404,0.560529 -0.0404,0.879546 0,0.350471 0.0124,0.643653 0.0371,0.879546 0.0247,0.235893 0.0775,0.447074 0.15838,0.633543 0.0741,0.175236 0.17861,0.30891 0.3134,0.401021 0.13705,0.09211 0.3179,0.138165 0.54256,0.138165 0.21118,0 0.38642,-0.04381 0.52571,-0.131426 0.13929,-0.08762 0.24712,-0.220168 0.32351,-0.39765 z"
         id="text2-4-5"
         style="font-size:12.4589px;fill:#4f4f4f;fill-opacity:1;stroke:#4f4f4f;stroke-width:0.264583;stroke-dasharray:none;stroke-opacity:1"
         aria-label="0" /><path
         d="m 161.18017,-36.717688 c 0,0.637197 -0.10011,1.105164 -0.30032,1.403899 -0.19863,0.297147 -0.50769,0.445721 -0.92719,0.445721 -0.42586,0 -0.73731,-0.150957 -0.93435,-0.452871 -0.19545,-0.301913 -0.29317,-0.765907 -0.29317,-1.391982 0,-0.630841 0.0993,-1.096424 0.29794,-1.396749 0.19863,-0.301913 0.50849,-0.45287 0.92958,-0.45287 0.42585,0 0.73651,0.15334 0.93196,0.460021 0.19703,0.305092 0.29555,0.766702 0.29555,1.384831 z m -0.62686,1.082122 c 0.0556,-0.12871 0.0929,-0.279667 0.11202,-0.45287 0.0207,-0.174792 0.031,-0.384543 0.031,-0.629252 0,-0.24153 -0.0103,-0.45128 -0.031,-0.629251 -0.0191,-0.177971 -0.0572,-0.328928 -0.11441,-0.452871 -0.0556,-0.122354 -0.13187,-0.214517 -0.22882,-0.27649 -0.0953,-0.06197 -0.21849,-0.09296 -0.36944,-0.09296 -0.14937,0 -0.27332,0.03099 -0.37184,0.09296 -0.0969,0.06197 -0.17399,0.155726 -0.2312,0.281257 -0.054,0.117587 -0.0913,0.270928 -0.11202,0.460021 -0.0191,0.189093 -0.0286,0.39646 -0.0286,0.622101 0,0.247887 0.009,0.455254 0.0262,0.622101 0.0175,0.166847 0.0548,0.316215 0.11202,0.448104 0.0525,0.123945 0.12636,0.218492 0.22167,0.283642 0.0969,0.06515 0.22485,0.09772 0.38375,0.09772 0.14937,0 0.27331,-0.03099 0.37183,-0.09296 0.0985,-0.06197 0.17479,-0.155726 0.22882,-0.281258 z"
         id="text2-4-0-2"
         style="font-size:12.4589px;fill:#4f4f4f;fill-opacity:1;stroke:#4f4f4f;stroke-width:0.264583;stroke-dasharray:none;stroke-opacity:1"
         aria-label="0" /><path
         d="m 158.43567,-43.984148 c 0,0.748671 -0.11762,1.298505 -0.35287,1.649502 -0.23337,0.349131 -0.59651,0.523697 -1.0894,0.523697 -0.50036,0 -0.86629,-0.177366 -1.0978,-0.532098 -0.22964,-0.354731 -0.34446,-0.899898 -0.34446,-1.635501 0,-0.741202 0.11669,-1.288236 0.35006,-1.641101 0.23338,-0.354731 0.59745,-0.532097 1.0922,-0.532097 0.50036,0 0.86536,0.180166 1.095,0.540499 0.23151,0.358466 0.34727,0.900832 0.34727,1.627099 z m -0.73654,1.271433 c 0.0653,-0.151228 0.10921,-0.328594 0.13163,-0.532098 0.0243,-0.205371 0.0364,-0.451816 0.0364,-0.739335 0,-0.283785 -0.0121,-0.530231 -0.0364,-0.739336 -0.0224,-0.209105 -0.0672,-0.386471 -0.13443,-0.532098 -0.0653,-0.143759 -0.15495,-0.252046 -0.26885,-0.324859 -0.11202,-0.07281 -0.25671,-0.10922 -0.43408,-0.10922 -0.1755,0 -0.32113,0.03641 -0.43688,0.10922 -0.11389,0.07281 -0.20444,0.182967 -0.27165,0.330461 -0.0635,0.138158 -0.10734,0.318324 -0.13162,0.540499 -0.0224,0.222174 -0.0336,0.465818 -0.0336,0.730933 0,0.291254 0.0103,0.534899 0.0308,0.730934 0.0205,0.196036 0.0644,0.371535 0.13162,0.526497 0.0616,0.145627 0.14842,0.256714 0.26045,0.333262 0.11389,0.07655 0.26418,0.11482 0.45088,0.11482 0.1755,0 0.32113,-0.03641 0.43688,-0.109219 0.11575,-0.07281 0.20537,-0.182968 0.26885,-0.330461 z"
         id="text2-9-0"
         style="font-size:12.4589px;fill:#4f4f4f;fill-opacity:1;stroke:#4f4f4f;stroke-width:0.264583;stroke-dasharray:none;stroke-opacity:1"
         aria-label="0" /><rect
         style="fill:#4f4f4f;fill-opacity:1;stroke:#4f4f4f;stroke-width:0.264583;stroke-dasharray:none;stroke-opacity:1"
         id="rect3-0"
         width="1.5203928"
         height="9.4371166"
         x="159.52556"
         y="-48.684414"
         ry="0.62914115" /><rect
         style="fill:#4f4f4f;fill-opacity:1;stroke:#4f4f4f;stroke-width:0.264583;stroke-dasharray:none;stroke-opacity:1"
         id="rect3-7-3"
         width="1.0344355"
         height="6.4207673"
         x="167.3598"
         y="-55.935417"
         ry="0.4280512" /><rect
         style="fill:#4f4f4f;fill-opacity:1;stroke:#4f4f4f;stroke-width:0.264583;stroke-dasharray:none;stroke-opacity:1"
         id="rect3-7-6-9"
         width="0.96937644"
         height="6.0169439"
         x="165.39485"
         y="-55.531593"
         ry="0.40112963" /><rect
         style="fill:#4f4f4f;fill-opacity:1;stroke:#4f4f4f;stroke-width:0.264583;stroke-dasharray:none;stroke-opacity:1"
         id="rect3-7-6-8-1"
         width="0.96937644"
         height="6.0169439"
         x="161.84601"
         y="-39.282536"
         ry="0.40112963" /><rect
         style="fill:#4f4f4f;fill-opacity:1;stroke:#4f4f4f;stroke-width:0.264583;stroke-dasharray:none;stroke-opacity:1"
         id="rect3-7-6-2-8"
         width="0.74908042"
         height="3.4206645"
         x="159.53851"
         y="-52.833336"
         ry="0.22804433" /><path
         d="m 158.76236,-39.637199 c 0,0.552304 -0.0868,0.957924 -0.26031,1.21686 -0.17217,0.257559 -0.44005,0.386338 -0.80366,0.386338 -0.36913,0 -0.63908,-0.130845 -0.80987,-0.392536 -0.16941,-0.261689 -0.25411,-0.663866 -0.25411,-1.20653 0,-0.546795 0.0861,-0.950349 0.25824,-1.210662 0.17217,-0.26169 0.44075,-0.392535 0.80574,-0.392535 0.36912,0 0.63838,0.132911 0.80779,0.398733 0.17079,0.264445 0.25618,0.664555 0.25618,1.200332 z m -0.54335,0.937954 c 0.0482,-0.111563 0.0806,-0.242409 0.0971,-0.392536 0.0179,-0.151505 0.0269,-0.333311 0.0269,-0.545418 0,-0.209351 -0.009,-0.391157 -0.0269,-0.545417 -0.0165,-0.15426 -0.0496,-0.285105 -0.0992,-0.392536 -0.0482,-0.106053 -0.11431,-0.185937 -0.19833,-0.239653 -0.0826,-0.05371 -0.18938,-0.08057 -0.32023,-0.08057 -0.12947,0 -0.2369,0.02686 -0.32229,0.08057 -0.084,0.05371 -0.15082,0.134975 -0.2004,0.243785 -0.0468,0.101921 -0.0792,0.234832 -0.0971,0.398733 -0.0165,0.163901 -0.0248,0.343641 -0.0248,0.53922 0,0.214862 0.008,0.394602 0.0227,0.539219 0.0151,0.144618 0.0475,0.274086 0.0971,0.388404 0.0455,0.107431 0.10951,0.189382 0.19214,0.245852 0.084,0.05647 0.19489,0.0847 0.33262,0.0847 0.12947,0 0.2369,-0.02686 0.32229,-0.08057 0.0854,-0.05371 0.1515,-0.134975 0.19833,-0.243785 z"
         id="path3-1"
         style="font-size:12.4589px;fill:#4f4f4f;fill-opacity:1;stroke:#4f4f4f;stroke-width:0.264583;stroke-dasharray:none;stroke-opacity:1"
         aria-label="0" /><path
         d="m 166.54052,-43.970277 c 0,0.552304 -0.0868,0.957924 -0.26031,1.21686 -0.17217,0.257559 -0.44005,0.386338 -0.80366,0.386338 -0.36913,0 -0.63908,-0.130845 -0.80987,-0.392536 -0.16941,-0.261689 -0.25411,-0.663866 -0.25411,-1.20653 0,-0.546795 0.0861,-0.950349 0.25824,-1.210662 0.17217,-0.26169 0.44075,-0.392535 0.80574,-0.392535 0.36912,0 0.63838,0.132911 0.80779,0.398733 0.17079,0.264445 0.25618,0.664555 0.25618,1.200332 z m -0.54335,0.937954 c 0.0482,-0.111563 0.0806,-0.242409 0.0971,-0.392536 0.0179,-0.151505 0.0269,-0.333311 0.0269,-0.545418 0,-0.209351 -0.009,-0.391157 -0.0269,-0.545417 -0.0165,-0.15426 -0.0496,-0.285105 -0.0992,-0.392536 -0.0482,-0.106053 -0.11431,-0.185937 -0.19833,-0.239653 -0.0826,-0.05371 -0.18938,-0.08057 -0.32023,-0.08057 -0.12947,0 -0.2369,0.02686 -0.32229,0.08057 -0.084,0.05371 -0.15082,0.134975 -0.2004,0.243785 -0.0468,0.101921 -0.0792,0.234832 -0.0971,0.398733 -0.0165,0.163901 -0.0248,0.343641 -0.0248,0.53922 0,0.214862 0.008,0.394602 0.0227,0.539219 0.0151,0.144618 0.0475,0.274086 0.0971,0.388404 0.0455,0.107431 0.10951,0.189382 0.19214,0.245852 0.084,0.05647 0.19489,0.0847 0.33262,0.0847 0.12947,0 0.2369,-0.02686 0.32229,-0.08057 0.0854,-0.05371 0.1515,-0.134975 0.19833,-0.243785 z"
         id="path3-1-2"
         style="font-size:12.4589px;fill:#1a1a1a;stroke:#1a1a1a;stroke-width:0.264583;stroke-dasharray:none;stroke-opacity:1"
         aria-label="0" /><path
         d="m 175.93912,-43.968077 c 0,0.552304 -0.0868,0.957924 -0.26031,1.21686 -0.17217,0.257559 -0.44005,0.386338 -0.80366,0.386338 -0.36913,0 -0.63908,-0.130845 -0.80987,-0.392536 -0.16941,-0.261689 -0.25411,-0.663866 -0.25411,-1.20653 0,-0.546795 0.0861,-0.950349 0.25824,-1.210662 0.17217,-0.26169 0.44075,-0.392535 0.80574,-0.392535 0.36912,0 0.63838,0.132911 0.80779,0.398733 0.17079,0.264445 0.25618,0.664555 0.25618,1.200332 z m -0.54335,0.937954 c 0.0482,-0.111563 0.0806,-0.242409 0.0971,-0.392536 0.0179,-0.151505 0.0269,-0.333311 0.0269,-0.545418 0,-0.209351 -0.009,-0.391157 -0.0269,-0.545417 -0.0165,-0.15426 -0.0496,-0.285105 -0.0992,-0.392536 -0.0482,-0.106053 -0.11431,-0.185937 -0.19833,-0.239653 -0.0826,-0.05371 -0.18938,-0.08057 -0.32023,-0.08057 -0.12947,0 -0.2369,0.02686 -0.32229,0.08057 -0.084,0.05371 -0.15082,0.134975 -0.2004,0.243785 -0.0468,0.101921 -0.0792,0.234832 -0.0971,0.398733 -0.0165,0.163901 -0.0248,0.343641 -0.0248,0.53922 0,0.214862 0.008,0.394602 0.0227,0.539219 0.0151,0.144618 0.0475,0.274086 0.0971,0.388404 0.0455,0.107431 0.10951,0.189382 0.19214,0.245852 0.084,0.05647 0.19489,0.0847 0.33262,0.0847 0.12947,0 0.2369,-0.02686 0.32229,-0.08057 0.0854,-0.05371 0.1515,-0.134975 0.19833,-0.243785 z"
         id="path3-1-2-7"
         style="font-size:12.4589px;fill:#cccccc;stroke:#cccccc;stroke-width:0.264583;stroke-dasharray:none;stroke-opacity:1"
         aria-label="0" /><path
         d="m 158.91422,-48.244339 c 0,0.552304 -0.0868,0.957924 -0.26032,1.21686 -0.17216,0.257559 -0.44005,0.386338 -0.80366,0.386338 -0.36912,0 -0.63907,-0.130845 -0.80986,-0.392536 -0.16941,-0.261689 -0.25412,-0.663866 -0.25412,-1.20653 0,-0.546795 0.0861,-0.950349 0.25825,-1.210662 0.17216,-0.26169 0.44074,-0.392535 0.80573,-0.392535 0.36912,0 0.63838,0.132911 0.80779,0.398733 0.17079,0.264445 0.25619,0.664555 0.25619,1.200332 z m -0.54336,0.937954 c 0.0482,-0.111563 0.0806,-0.242409 0.0971,-0.392536 0.0179,-0.151505 0.0269,-0.333311 0.0269,-0.545418 0,-0.209351 -0.009,-0.391157 -0.0269,-0.545417 -0.0165,-0.15426 -0.0496,-0.285105 -0.0992,-0.392536 -0.0482,-0.106053 -0.11431,-0.185937 -0.19833,-0.239653 -0.0826,-0.05371 -0.18938,-0.08057 -0.32023,-0.08057 -0.12947,0 -0.2369,0.02686 -0.32229,0.08057 -0.084,0.05371 -0.15081,0.134975 -0.2004,0.243785 -0.0468,0.101921 -0.0792,0.234832 -0.0971,0.398733 -0.0165,0.163901 -0.0248,0.343641 -0.0248,0.53922 0,0.214862 0.008,0.394602 0.0227,0.539219 0.0151,0.144618 0.0475,0.274086 0.0971,0.388404 0.0455,0.107431 0.10951,0.189382 0.19214,0.245852 0.084,0.05647 0.19489,0.0847 0.33262,0.0847 0.12947,0 0.2369,-0.02686 0.32229,-0.08057 0.0854,-0.05371 0.1515,-0.134975 0.19833,-0.243785 z"
         id="path3-9-9"
         style="font-size:12.4589px;fill:#4f4f4f;fill-opacity:1;stroke:#4f4f4f;stroke-width:0.264583;stroke-dasharray:none;stroke-opacity:1"
         aria-label="0" /><path
         d="m 177.96573,-43.971939 c 0,1.626309 -0.2555,2.820692 -0.76651,3.583151 -0.50696,0.758403 -1.29578,1.137605 -2.36647,1.137605 -1.08691,0 -1.88181,-0.385285 -2.38471,-1.155855 -0.49884,-0.77057 -0.74826,-1.954815 -0.74826,-3.552734 0,-1.610085 0.25348,-2.798385 0.76043,-3.5649 0.50695,-0.77057 1.2978,-1.155855 2.37254,-1.155855 1.08691,0 1.87979,0.391368 2.37863,1.174105 0.5029,0.778681 0.75435,1.956842 0.75435,3.534483 z m -1.59995,2.761886 c 0.14195,-0.328507 0.23726,-0.713792 0.28593,-1.155855 0.0527,-0.44612 0.0791,-0.981464 0.0791,-1.606031 0,-0.616456 -0.0264,-1.151799 -0.0791,-1.60603 -0.0487,-0.454231 -0.146,-0.839516 -0.29201,-1.155855 -0.14195,-0.312283 -0.33662,-0.54751 -0.58401,-0.70568 -0.24334,-0.158169 -0.55765,-0.237254 -0.94294,-0.237254 -0.38123,0 -0.69756,0.07908 -0.94901,0.237254 -0.24739,0.15817 -0.44409,0.397452 -0.5901,0.717847 -0.13789,0.300117 -0.23319,0.691485 -0.28592,1.174106 -0.0487,0.48262 -0.073,1.01188 -0.073,1.587779 0,0.632679 0.0223,1.161939 0.0669,1.58778 0.0446,0.425841 0.13991,0.807071 0.28592,1.143688 0.13384,0.316339 0.32243,0.55765 0.56576,0.723931 0.24739,0.166281 0.57387,0.249421 0.97944,0.249421 0.38123,0 0.69757,-0.07908 0.94902,-0.237255 0.25145,-0.158169 0.44612,-0.397451 0.58401,-0.717846 z"
         id="path5"
         style="font-size:12.4589px;fill:#ffffff;stroke:#ffffff;stroke-width:0.264583;stroke-dasharray:none"
         aria-label="0" /><rect
         style="opacity:1;fill:#ffffff;fill-opacity:1;stroke:#ffffff;stroke-width:0.325577;stroke-dasharray:none;stroke-opacity:1"
         id="rect6"
         width="3.1312487"
         height="0.61020923"
         x="177.41287"
         y="-44.330658"
         ry="0.065152377" /><path
         style="opacity:1;fill:none;fill-opacity:1;stroke:#ffffff;stroke-width:0.529167;stroke-linecap:round;stroke-dasharray:none;stroke-opacity:1"
         d="m 179.69867,-43.690798 c -1.65598,1.958135 0.25805,3.034097 -0.023,4.439359 -0.29077,1.453872 -3.3917,2.406862 -1.61013,4.485362"
         id="path6" /></g><g
       id="g2"
       transform="translate(-136.07705,64.177821)"><path
         d="m 156.50997,-7.0018478 q 0,-0.5998314 -0.1475,-1.0472465 -0.1475,-0.4523319 -0.40808,-0.7522475 -0.26058,-0.2999157 -0.6195,-0.4474152 -0.35891,-0.1474995 -0.78666,-0.1474995 -0.42775,0 -0.78667,0.1474995 -0.35891,0.1474995 -0.61949,0.4474152 -0.26059,0.2999156 -0.40809,0.7522475 -0.1475,0.4474151 -0.1475,1.0472465 0,0.5998313 0.1475,1.0521631 0.1475,0.4474152 0.40809,0.7473309 0.26058,0.294999 0.61949,0.4474151 0.35892,0.1474995 0.78667,0.1474995 0.42775,0 0.78666,-0.1474995 0.35892,-0.1524161 0.6195,-0.4474151 0.26058,-0.2999157 0.40808,-0.7473309 0.1475,-0.4523318 0.1475,-1.0521631 z m 1.24391,0 q 0,0.7522475 -0.21633,1.3815787 -0.21142,0.6244146 -0.62441,1.0767464 -0.40809,0.4523318 -1.00792,0.703081 -0.59491,0.2507491 -1.35699,0.2507491 -0.76208,0 -1.36191,-0.2507491 -0.59492,-0.2507492 -1.00792,-0.703081 -0.40808,-0.4523318 -0.62441,-1.0767464 -0.21142,-0.6293312 -0.21142,-1.3815787 0,-0.7522475 0.21142,-1.3766621 0.21633,-0.6293312 0.62441,-1.081663 0.413,-0.4523319 1.00792,-0.7030811 0.59983,-0.250749 1.36191,-0.250749 0.76208,0 1.35699,0.250749 0.59983,0.2507492 1.00792,0.7030811 0.41299,0.4523318 0.62441,1.081663 0.21633,0.6244146 0.21633,1.3766621 z m 4.56265,3.1859893 q -0.22124,0.093416 -0.54083,0.1573328 -0.31958,0.068833 -0.67358,0.068833 -0.51625,0 -0.96366,-0.1474995 -0.44742,-0.1474995 -0.78175,-0.4474151 -0.33433,-0.2999157 -0.52608,-0.7571642 -0.19175,-0.4621651 -0.19175,-1.0767464 0,-0.688331 0.22125,-1.179996 0.22125,-0.4916651 0.57033,-0.7964974 0.354,-0.3097489 0.79158,-0.4523318 0.4425,-0.1474995 0.87025,-0.1474995 0.31958,0 0.61458,0.059 0.295,0.054083 0.53591,0.1524162 v 0.9489135 q -0.21633,-0.093416 -0.46216,-0.1474996 -0.24092,-0.059 -0.52117,-0.059 -0.28024,0 -0.53591,0.0885 -0.25567,0.083583 -0.45233,0.2704158 -0.19667,0.1868327 -0.31467,0.4965817 -0.11308,0.3048323 -0.11308,0.7374975 0,0.3146656 0.0885,0.5949147 0.0885,0.2753324 0.25567,0.4719984 0.17208,0.196666 0.43266,0.3195823 0.2655,0.1179996 0.62441,0.1179996 0.31959,0 0.58017,-0.063917 0.26058,-0.063916 0.49166,-0.1573328 z m 3.91858,0.098333 q -0.19667,0.059 -0.472,0.093416 -0.27042,0.034417 -0.50642,0.034417 -0.59983,0 -0.98333,-0.1917493 -0.37858,-0.196666 -0.53591,-0.5604981 -0.11309,-0.2605825 -0.11309,-0.7079977 v -2.4681584 h -0.88991 v -0.9587468 h 0.88991 v -1.3324122 h 1.16525 v 1.3324122 h 1.37666 v 0.9587468 h -1.37666 v 2.3157423 q 0,0.2753324 0.0836,0.4080819 0.1475,0.2261659 0.58508,0.2261659 0.20159,0 0.39825,-0.0295 0.20159,-0.034417 0.37859,-0.083583 z m 4.24798,-2.374742 q 0,-0.3785821 -0.0885,-0.6686645 -0.0885,-0.2900823 -0.24583,-0.4867483 -0.15734,-0.196666 -0.37858,-0.2949991 -0.22125,-0.098333 -0.48184,-0.098333 -0.25566,0 -0.47691,0.098333 -0.21633,0.098333 -0.37367,0.2949991 -0.15733,0.196666 -0.24583,0.4867483 -0.0885,0.2900824 -0.0885,0.6686645 0,0.378582 0.0885,0.6686644 0.0885,0.2900824 0.24583,0.4867484 0.16225,0.1917493 0.37859,0.294999 0.22124,0.098333 0.48183,0.098333 0.26058,0 0.47691,-0.098333 0.21633,-0.1032497 0.37367,-0.294999 0.15733,-0.196666 0.24583,-0.4867484 0.0885,-0.2900824 0.0885,-0.6686644 z m 1.20458,0 q 0,0.5604981 -0.16717,1.0226632 -0.16716,0.4621651 -0.48183,0.7915807 -0.30975,0.3294156 -0.75225,0.5113316 -0.44249,0.1769994 -0.98824,0.1769994 -0.5605,0 -1.00792,-0.1769994 -0.44249,-0.181916 -0.75224,-0.5113316 -0.30975,-0.3294156 -0.47692,-0.7915807 -0.16225,-0.4621651 -0.16225,-1.0226632 0,-0.5604982 0.16717,-1.0226633 0.16716,-0.4621651 0.47691,-0.7915807 0.31467,-0.3294155 0.75717,-0.5064149 0.4425,-0.1819161 0.98824,-0.1819161 0.5605,0 1.003,0.1819161 0.44742,0.1769994 0.75716,0.5064149 0.30975,0.3294156 0.472,0.7915807 0.16717,0.4621651 0.16717,1.0226633 z"
         id="text1"
         style="font-weight:bold;font-size:10.0693px;font-family:Corbel;-inkscape-font-specification:'Corbel, Bold';fill:#1a1a1a;stroke-width:1.67822;stroke-linecap:round"
         aria-label="Octo" /><path
         d="m 176.42841,-2.4476489 q 0,-0.2423292 -0.11879,-0.3896274 -0.11879,-0.1520497 -0.3231,-0.2470807 -0.20432,-0.095031 -0.4609,-0.1520497 -0.25184,-0.06177 -0.53218,-0.1187888 -0.37062,-0.080776 -0.70798,-0.1900621 -0.33736,-0.1140373 -0.59394,-0.308851 -0.25659,-0.1995652 -0.40864,-0.5036646 -0.15205,-0.3040994 -0.15205,-0.7602484 0,-0.5036646 0.17581,-0.8742858 0.17581,-0.3753726 0.47516,-0.6177018 0.3041,-0.2470808 0.70798,-0.3658696 0.40863,-0.1235404 0.91705,-0.1235404 0.50841,0 1.02158,0.099783 0.51317,0.099783 0.88379,0.2565839 v 0.9978261 q -0.49416,-0.1948137 -0.95031,-0.2803416 -0.4514,-0.090279 -0.85053,-0.090279 -0.57494,0 -0.88854,0.2090683 -0.30885,0.2090683 -0.30885,0.627205 0,0.2423292 0.0998,0.3991304 0.10454,0.1568013 0.28034,0.2613354 0.17581,0.099783 0.40389,0.1615528 0.22807,0.06177 0.48466,0.1140373 0.40388,0.085528 0.76975,0.1995652 0.37062,0.1092857 0.65571,0.3088509 0.28509,0.1995653 0.4514,0.5226708 0.1663,0.3183541 0.1663,0.8172671 0,0.5131677 -0.19006,0.8885404 -0.19006,0.3753727 -0.54168,0.62245343 -0.34686,0.24232919 -0.84577,0.36111801 -0.49892,0.11878882 -1.09286,0.11878882 -0.51792,0 -1.02158,-0.10453416 -0.49892,-0.0997826 -0.83153,-0.28509317 V -1.8774626 q 0.47041,0.2043168 0.91705,0.2993478 0.44665,0.09028 0.92181,0.09028 0.27559,0 0.54167,-0.042764 0.26609,-0.047516 0.47516,-0.1568013 0.21382,-0.1092857 0.34211,-0.2945963 0.12829,-0.1900621 0.12829,-0.4656521 z m 4.38093,1.94338506 q -0.69372,0 -1.14987,-0.23282608 -0.45615,-0.23757765 -0.68898,-0.63670808 -0.12354,-0.2138199 -0.18531,-0.4704037 -0.057,-0.2565839 -0.057,-0.5701864 v -2.8129192 h 1.12612 v 2.6941304 q 0,0.2328261 0.0333,0.403882 0.0333,0.1663043 0.0998,0.2898447 0.11404,0.2090683 0.32311,0.3136025 0.20907,0.099783 0.49891,0.099783 0.3041,0 0.51792,-0.1140373 0.21857,-0.1140372 0.32786,-0.3468633 0.10929,-0.223323 0.10929,-0.6224534 v -2.7178882 h 1.12611 v 2.8129192 q 0,0.5606833 -0.19481,0.945559 -0.10929,0.2185715 -0.28509,0.3991305 -0.17106,0.17580743 -0.40864,0.30409936 -0.23282,0.12354037 -0.53217,0.19006211 -0.2946,0.0712733 -0.66047,0.0712733 z m 6.53814,-1.94338506 q 0,-0.2423292 -0.11879,-0.3896274 -0.11879,-0.1520497 -0.3231,-0.2470807 -0.20432,-0.095031 -0.46091,-0.1520497 -0.25183,-0.06177 -0.53217,-0.1187888 -0.37062,-0.080776 -0.70798,-0.1900621 -0.33736,-0.1140373 -0.59394,-0.308851 -0.25659,-0.1995652 -0.40864,-0.5036646 -0.15205,-0.3040994 -0.15205,-0.7602484 0,-0.5036646 0.17581,-0.8742858 0.17581,-0.3753726 0.47515,-0.6177018 0.3041,-0.2470808 0.70799,-0.3658696 0.40863,-0.1235404 0.91705,-0.1235404 0.50841,0 1.02158,0.099783 0.51317,0.099783 0.88379,0.2565839 v 0.9978261 q -0.49416,-0.1948137 -0.95031,-0.2803416 -0.4514,-0.090279 -0.85053,-0.090279 -0.57494,0 -0.88854,0.2090683 -0.30885,0.2090683 -0.30885,0.627205 0,0.2423292 0.0998,0.3991304 0.10454,0.1568013 0.28034,0.2613354 0.17581,0.099783 0.40388,0.1615528 0.22808,0.06177 0.48466,0.1140373 0.40389,0.085528 0.76975,0.1995652 0.37063,0.1092857 0.65572,0.3088509 0.28509,0.1995653 0.4514,0.5226708 0.1663,0.3183541 0.1663,0.8172671 0,0.5131677 -0.19006,0.8885404 -0.19006,0.3753727 -0.54168,0.62245343 -0.34686,0.24232919 -0.84577,0.36111801 -0.49892,0.11878882 -1.09286,0.11878882 -0.51792,0 -1.02159,-0.10453416 -0.49891,-0.0997826 -0.83152,-0.28509317 V -1.8774626 q 0.47041,0.2043168 0.91705,0.2993478 0.44665,0.09028 0.9218,0.09028 0.27559,0 0.54168,-0.042764 0.26609,-0.047516 0.47516,-0.1568013 0.21382,-0.1092857 0.34211,-0.2945963 0.12829,-0.1900621 0.12829,-0.4656521 z"
         id="text1-8"
         style="font-weight:bold;font-size:9.73118px;font-family:Corbel;-inkscape-font-specification:'Corbel, Bold';fill:#1a1a1a;stroke-width:1.62188;stroke-linecap:round"
         aria-label="SuS" /><rect
         style="fill:#4d008b;fill-opacity:1;stroke:none;stroke-width:0.764261;stroke-linecap:round;stroke-opacity:1"
         id="rect2"
         width="16.953947"
         height="0.98945272"
         x="154.73358"
         y="-1.8516401"
         ry="0" /></g></g></svg>
